<svg width="14" height="15" viewBox="0 0 14 15" fill="none" xmlns="http://www.w3.org/2000/svg">
<mask id="mask0_7303_4390" style="mask-type:alpha" maskUnits="userSpaceOnUse" x="0" y="0" width="14" height="15">
<rect y="0.5" width="14" height="14" fill="#D9D9D9"/>
</mask>
<g mask="url(#mask0_7303_4390)">
<path d="M6.18329 8.54984L4.92913 7.29567C4.82218 7.18873 4.68607 7.13525 4.52079 7.13525C4.35551 7.13525 4.2194 7.18873 4.11246 7.29567C4.00551 7.40262 3.95204 7.53873 3.95204 7.704C3.95204 7.86928 4.00551 8.00539 4.11246 8.11234L5.77496 9.77484C5.89163 9.8915 6.02774 9.94984 6.18329 9.94984C6.33885 9.94984 6.47496 9.8915 6.59163 9.77484L9.88746 6.479C9.9944 6.37206 10.0479 6.23595 10.0479 6.07067C10.0479 5.90539 9.9944 5.76928 9.88746 5.66234C9.78051 5.55539 9.6444 5.50192 9.47913 5.50192C9.31385 5.50192 9.17774 5.55539 9.07079 5.66234L6.18329 8.54984ZM6.99996 13.3332C6.19301 13.3332 5.43468 13.18 4.72496 12.8738C4.01524 12.5675 3.39788 12.1519 2.87288 11.6269C2.34788 11.1019 1.93225 10.4846 1.626 9.77484C1.31975 9.06511 1.16663 8.30678 1.16663 7.49984C1.16663 6.69289 1.31975 5.93456 1.626 5.22484C1.93225 4.51511 2.34788 3.89775 2.87288 3.37275C3.39788 2.84775 4.01524 2.43213 4.72496 2.12588C5.43468 1.81963 6.19301 1.6665 6.99996 1.6665C7.8069 1.6665 8.56524 1.81963 9.27496 2.12588C9.98468 2.43213 10.602 2.84775 11.127 3.37275C11.652 3.89775 12.0677 4.51511 12.3739 5.22484C12.6802 5.93456 12.8333 6.69289 12.8333 7.49984C12.8333 8.30678 12.6802 9.06511 12.3739 9.77484C12.0677 10.4846 11.652 11.1019 11.127 11.6269C10.602 12.1519 9.98468 12.5675 9.27496 12.8738C8.56524 13.18 7.8069 13.3332 6.99996 13.3332Z" fill="white"/>
</g>
</svg>
